<svg xmlns="http://www.w3.org/2000/svg" width="151" height="30" fill="none"><path fill="#023748" d="M8.76 29V7.28H.16V1h25.08v6.28h-8.56V29H8.76Zm33.16.56c-2.24 0-4.307-.36-6.2-1.08-1.893-.72-3.547-1.733-4.96-3.04a14.427 14.427 0 0 1-3.24-4.64c-.773-1.76-1.16-3.693-1.16-5.8 0-2.107.387-4.04 1.16-5.8a13.982 13.982 0 0 1 3.24-4.6c1.413-1.333 3.067-2.36 4.96-3.08C37.613.8 39.68.44 41.92.44c2.267 0 4.333.36 6.2 1.08 1.893.72 3.533 1.747 4.92 3.08a13.982 13.982 0 0 1 3.24 4.6c.8 1.76 1.2 3.693 1.2 5.8 0 2.107-.4 4.053-1.2 5.84a13.982 13.982 0 0 1-3.24 4.6c-1.387 1.307-3.027 2.32-4.92 3.04-1.867.72-3.933 1.08-6.2 1.08Zm0-6.56c1.067 0 2.053-.187 2.96-.56a6.773 6.773 0 0 0 2.4-1.6 7.437 7.437 0 0 0 1.6-2.56c.4-.987.6-2.08.6-3.28 0-1.227-.2-2.32-.6-3.28-.373-.987-.907-1.827-1.6-2.52a6.532 6.532 0 0 0-2.4-1.64c-.907-.373-1.893-.56-2.96-.56a8.002 8.002 0 0 0-3 .56 7.003 7.003 0 0 0-2.4 1.64c-.667.693-1.2 1.533-1.6 2.52-.373.96-.56 2.053-.56 3.28 0 1.2.187 2.293.56 3.28.4.987.933 1.84 1.6 2.56a7.283 7.283 0 0 0 2.4 1.6c.933.373 1.933.56 3 .56Zm27.068-9.72h12.92v6.12h-12.92v-6.12Zm.56 15.72h-7.92V1h21.96v6.12h-14.04V29Zm31.63.56c-2.24 0-4.307-.36-6.2-1.08-1.893-.72-3.547-1.733-4.96-3.04a14.427 14.427 0 0 1-3.24-4.64c-.774-1.76-1.16-3.693-1.16-5.8 0-2.107.386-4.04 1.16-5.8a13.982 13.982 0 0 1 3.24-4.6c1.413-1.333 3.067-2.36 4.96-3.08 1.893-.72 3.96-1.08 6.2-1.08 2.266 0 4.333.36 6.2 1.08 1.893.72 3.533 1.747 4.92 3.08a14.002 14.002 0 0 1 3.24 4.6c.8 1.76 1.2 3.693 1.2 5.8 0 2.107-.4 4.053-1.2 5.84a14.002 14.002 0 0 1-3.24 4.6c-1.387 1.307-3.027 2.32-4.92 3.04-1.867.72-3.934 1.08-6.2 1.08Zm0-6.56c1.066 0 2.053-.187 2.96-.56a6.779 6.779 0 0 0 2.4-1.6 7.452 7.452 0 0 0 1.6-2.56c.4-.987.6-2.08.6-3.28 0-1.227-.2-2.32-.6-3.28-.374-.987-.907-1.827-1.6-2.52a6.537 6.537 0 0 0-2.4-1.64c-.907-.373-1.894-.56-2.96-.56a8.002 8.002 0 0 0-3 .56 7.003 7.003 0 0 0-2.4 1.64c-.667.693-1.2 1.533-1.6 2.52-.373.96-.56 2.053-.56 3.28 0 1.2.187 2.293.56 3.28.4.987.933 1.84 1.6 2.56a7.283 7.283 0 0 0 2.4 1.6c.933.373 1.933.56 3 .56Zm33.828 6.56c-2.24 0-4.307-.36-6.2-1.08-1.893-.72-3.547-1.733-4.96-3.04a14.418 14.418 0 0 1-3.24-4.64c-.773-1.76-1.16-3.693-1.16-5.8 0-2.107.387-4.04 1.16-5.8a13.973 13.973 0 0 1 3.24-4.6c1.413-1.333 3.067-2.36 4.96-3.08 1.893-.72 3.96-1.08 6.2-1.08 2.267 0 4.333.36 6.2 1.08 1.893.72 3.533 1.747 4.92 3.08a13.973 13.973 0 0 1 3.24 4.6c.8 1.76 1.2 3.693 1.2 5.8 0 2.107-.4 4.053-1.2 5.84a13.973 13.973 0 0 1-3.24 4.6c-1.387 1.307-3.027 2.32-4.92 3.04-1.867.72-3.933 1.08-6.2 1.08Zm0-6.56c1.067 0 2.053-.187 2.96-.56a6.779 6.779 0 0 0 2.4-1.6 7.437 7.437 0 0 0 1.6-2.56c.4-.987.6-2.08.6-3.28 0-1.227-.2-2.32-.6-3.28-.373-.987-.907-1.827-1.6-2.52a6.537 6.537 0 0 0-2.4-1.64c-.907-.373-1.893-.56-2.96-.56a8 8 0 0 0-3 .56 6.997 6.997 0 0 0-2.4 1.64c-.667.693-1.2 1.533-1.6 2.52-.373.96-.56 2.053-.56 3.28 0 1.2.187 2.293.56 3.28.4.987.933 1.84 1.6 2.56a7.276 7.276 0 0 0 2.4 1.6 8 8 0 0 0 3 .56Z"/></svg>